# xmcd CD database file
#
# Track frame offsets:
#	150
#	14152
#	22063
#	25009
#	27216
#	31339
#	34458
#	38925
#	41498
#	42696
#	44636
#	46273
#	47643
#	49737
#	52853
#	55531
#
# Disc length: 980 seconds
#
# Revision: 0
# Processed by: cddbd v1.5.2PL0 Copyright (c) Steve Scherf et al.
# Submitted via: CDex 1.51
#
DISCID=d703d210
DTITLE=Barry Finnerty - The serious jazz practice book
DYEAR=2006
DGENRE=Jazz
TTITLE0=01
TTITLE1=02
TTITLE2=03
TTITLE3=04
TTITLE4=05
TTITLE5=06
TTITLE6=07
TTITLE7=08
TTITLE8=09
TTITLE9=10
TTITLE10=11
TTITLE11=12
TTITLE12=13
TTITLE13=14
TTITLE14=15
TTITLE15=16
EXTD=YEAR: 2006
EXTT0=
EXTT1=
EXTT2=
EXTT3=
EXTT4=
EXTT5=
EXTT6=
EXTT7=
EXTT8=
EXTT9=
EXTT10=
EXTT11=
EXTT12=
EXTT13=
EXTT14=
EXTT15=
PLAYORDER=
